<?xml version="1.0" encoding="UTF-8"?>
<svg id="Layer_2" data-name="Layer 2" xmlns="http://www.w3.org/2000/svg" viewBox="0 0 197.21 172.56">
  <defs>
    <style>
      .cls-1 {
        fill: #fff;
        stroke-width: 0px;
      }
    </style>
  </defs>
  <g id="Layer_1-2" data-name="Layer 1">
    <path class="cls-1" d="m11.19,45.58c-.92,1.61-3,2.38-4.94,1.84-1.61,3.5-2.77,7.81-3.14,12.04-.41,7.38,1.37,1.77,3.21-2.7.1-2.14.7-4.04,1.79-5.71,1.01-1.54,2.43-2.85,4.26-3.93.43-4.34,3.09-7.19,6.35-9.11,4.54-2.67,9.83-3.62,15.07-4.13,4.98-.49,4.92-1.52,4.86-4.02-.12-5.62,2.74-6.84,8.28-9.26.69-.3,1.43-.62,2.22-.98-1.16-1.24-1.48-2.75-.6-4.33-.85-1.02-4.6-.83-6.89.3,1.59-2.56,5.42-4.61,9.03-2.55.44-.29.92-.54,1.42-.7,4.1-1.34,8.35-1.77,12.6-2.2,1.82-.19,3.64-.37,5.41-.62,5.61-4.94,15.16-3.69,21.55-1.06,1.68-2.59.13-4.57-2.36-5.02-11.99-2.2-10.29,1.74-17.07,3.31,1.74-1.51,1.44-2.44.58-2.62-3.28-.67-6.29.42-6.63,1.52-.32,1.02,1.43,2.36.8,3.73-4.87-3.82-10.93-2.71-16.26-.5l-.11.05-.13.03c-2.34.54-4.57,1.45-6.74,2.57-3.42,1.78-6.05,3.48-8.07,6.72.39-4.3-6.88,1.39-9.01,3.05-2.11,1.65-4.11,3.58-5.96,5.85,2.67-.95,5.33-1.93,7.68-3.34,4.75-2.84,6.69-7.31,15.11-3.68-7.96-.77-7.32,2.49-13.59,6.23-2.79,1.66.59,1.83,3.72,4.69-3.3-1.3-9.31-1.75-14.23-.22-3.48,1.08-6.2,3.5-7.98,5.85-3.04,4.04-4.99,9.36-.26,8.91h0Zm93.91,92.95c4.65,3.58,8.87,5.14,13.35,6.34,1.1.29,1.85-.05.48-.91-2.31-1.45-4.85-2.86-7.57-3.6,9.28.74,18.79,11.88,19.11,11.92,4.76.69,9.75,1,14.49.53-4.78-.87-9.56-1.66-14.36-2.4,7.26-.56,15.57,2.24,22.57.64-8.64-1.85-17.35-3.37-26.09-4.71,7.94-.78,26.45,4.27,31.29,2.14-12.65-2.77-25.46-4.83-38.28-6.58,6.65-1.15,39.25,5.21,41.49,4-21.12-4.71-42.75-7.55-64.26-9.8.34.61,1.29,1.22,3.09,1.78,8.35,6.32,15.99,15.02,27.32,14.25-1.16-1.79-13.63-3.46-18.35-8.65,5.06,3.12,12.21,5.42,15.82,5.68-5.32-3.01-14.24-4.55-20.09-10.65h0Zm61.24-1.31c-11.74-3-23.73-5.14-35.82-6.02-.95.15-1.88.28-2.81.38,12.93,1.54,25.99,3.6,38.62,6.77.07-.41.07-.79.02-1.13h0Zm-29.45-7.07c9.5,1.02,18.92,2.78,28.19,5.08-1.89-1.43-5.5-1.85-8.44-2.71-5.04-.24-9.09-2.91-14.33-2.87-1.74.01-3.56.22-5.42.5h0Zm28.95,9.76c-15.09-3.79-31.07-6.32-46.58-7.55-4.81.9-8.9-.52-13.64-.58-.47,0-1.02.04-1.61.13,20.42,2.25,40.96,5.03,61.01,9.56.11-.19.22-.38.33-.57.19-.35.36-.68.49-1h0Zm-1.75,3.02c-21.1-4.72-42.71-7.57-64.2-9.83-.94.41-1.75.9-2.23,1.42,21.81,2.29,43.78,5.17,65.19,10.02.43-.51.85-1.05,1.24-1.61h0Zm-125.92-41.83c-4.43,1.05-9,.75-13.08-1.37-6.84-1.36-12.34-4.19-16.27-8.74-3.91-4.51-6.22-10.66-6.74-18.66C.06,68.36-.24,63.55.14,59.2c.48-5.4,2.15-10.94,4.42-15.04,1.56-6.49,5.34-11.65,11.13-15.16,2.73-4.16,5.81-7.45,9.17-10.07,3.39-2.64,7.06-4.59,10.92-6.05,2.17-1.46,4.36-2.85,6.61-4.02,2.32-1.21,4.74-2.2,7.32-2.8,3.7-1.53,7.42-2.56,11.2-2.26,4.01-2.15,8.45-3.01,12.97-2.4,6-1.55,12.17-1.36,18.25-.48,10.38-2.91,22.73,1.72,32.37,5.33,6.9.18,12.14,2.73,17.48,6.87,4.13,1.23,7.7,3.07,10.95,5.28,3.25,2.21,6.15,4.75,8.96,7.37,3.99,2.4,7.54,5.02,10.38,7.97,2.82,2.93,4.94,6.19,6.11,9.9,7.31,6.13,11.21,12.33,11.7,18.61,2.21,3.08,3.62,6.16,4.54,9.23,1.97,6.53,2.5,14.18,2.58,20.97.04,3.81-.15,7.61-.58,11.39,1.18,6.66-.54,13.29-5.16,19.88-.72,3.07-2.11,5.23-4.16,6.5-2.08,5.56-10.61,8.4-17.08,6.78-4.84,15.53-18.42,21.58-40.74,18.14-2.57.28-4.98.13-7.27-.35,2.26,4.33,4.24,8.92,4.92,13.79h0c.16,1.17-.25,2.1-1.03,2.79-2.56,2.28-7.76,1.1-9.23-1.94-3.3-6.8-8.3-11.6-14.66-17.71-1.51-1.45-3.09-2.97-4.77-4.63-2.35-2.33-3.47-5.77-3.37-9.04-1.17-.77-2.27-1.64-3.2-2.53-3.41,1.14-6.93,1.17-9.84,1.25-4.3,4.01-15.93,2.63-25.53-3.24-6.78-4.13-12.75-9.46-13.04-16.43-1.85-2.73-3.05-5.6-3.71-8.58-.53-2.41-.7-4.9-.57-7.44h0Zm-1.79-5.41c-2.86-1.02-5.78-1.9-8.36-3.56-3.33,1.42-6.42.81-8.07-.53,1.8.19,3.24-.19,4.27-.89,1.63-1.12-.38-1.79-2.07-2.41-7.9-2.9-12.89-3.29-13.22-12.94,1.4,3.46,4.2,6.25,6.13,7.3,3.9,1.8,3.19.95,2.3-.75-1-1.94-2.45-5.01-2.14-7.2,3.58,8.16,13.74,15.42,22.09,18.17,4.49,1.48,5.6-2.79,9.23-5.41,2.42-4.01,6.94-6.34,11.52-6.75.09-.56.22-1.1.38-1.63-6.14-.5-10.84-3.45-15.18-4.78-1.64-.5-3.86.2-5.32-1.18,4.58-.66,6.37-2.96,5.59-6.27,1.57.58,1.15,2.9,1.86,4.41,1.42,3,12.86,7.32,14.6,4.37-2.22-.47-4.08-3.44-3.49-5.48,2.37,4.38,4.83,3.07,7.97-.06-.43-2.6-.49-5.19-.13-7.68.25-1.76.71-3.47,1.37-5.1l-.37.06h0c-4.29.73-8.05,1.11-12.39.6-1.55-.18-3.1-.36-4.57-.31,2.48,1.26,4.54,3.9,3.07,6.8-2.72-6.64-11.68-4.14-16.07-1.27-2.76,1.81-5.29,3.91-7.39,6.36-1.4,1.63-1.19,5.14.37,6.6,4.61,4.35,10.38,1.9,14.73,9.66-6.45-5.48-12.12-3.11-16.76-7.49-2.21-2.08-2.72-5.82-1.76-8.62-2.19-.13-5.13-.4-7.69-1.13h0c-4.01-1.14-7.09-3.34-5.88-7.61.89-3.14,6.75-10.62,14.13-10.8,3.79-.09,4.75-5.58,11.24-5.91-4.75,1.06-6.09,6.26-10.04,7.15-6.12,1.38-11.28,6.17-12.47,10.36-.58,2.05,1.36,3.24,3.82,3.94h0c2.96.84,6.63,1.01,8.63,1.11h.11c2.15-2.34,4.63-4.37,7.31-6.12,3.32-2.17,6.96-3.91,10.63-5.29,2.93-1.1,5.91-.75,8.91-.39,4.05.48,7.54.1,11.55-.58h0c.86-.15,1.71-.29,2.59-.43.93-1.44,2.06-2.79,3.4-4.02-.56-2.12-1.54-4.35-.85-6.53,2.96-9.28-.18-9.09-5.49-13.75h0s-.02-.02-.02-.02c-2.42-2.55-1.87-6.83-.26-10.87.86-2.14,2.02-4.25,3.16-5.95-.79.09-1.57.17-2.36.25-4.08.42-8.16.83-11.97,2.08-4.47,1.46-.34,3.28,1.49,3.9,2.06.7,3.4,1.07,6.79.62-2.13,2.42-8.41.94-13.21,3.65-4.1,1.79-6.49,2.73-6.39,6.69.15,6.09,17.14,5.06,21.44,8.81h0c.87.76,1.22,1.69,1.23,2.69.08,6.99-9.94,8-14.84,8.2-5.28.22-10.91.45-17.56,7.15,4.83-8.12,13.32-9.95,17.44-10.12,2.94-.12,12.04-.54,11.99-5.21-.01-1.26-3.09-1.98-5.97-2.65-5.3-1.25-13.7-2.16-21.2-1.67-6.02.39-11.51,1.88-14.05,3.37-6.25,3.67-4.1,7.45.56,7.52-3.97.79-7.74.87-10.19,4.59-1.43,2.18-1.34,5.27-.93,7.67-1.68-2.05-3.02,3.18-3.47,4.72-2.36,8.06-.72,17.52,4.88,23.98,3.87,4.48,9.32,6.74,15.01,7.84,1.78.95,5.56,1.84,8.89,1.34,3.2-.49,3.54-1.78,1.42-2.54h0Zm8,18.94c3.57-2.04,7.65-.35,10.09,3.99-3.67-2.18-6.81-3.07-7.95-1.35-3.44,5.24,7.1,12.08,10.59,13.91l.07.04c6.93,4.15,20.71,9,24.17-1.56,1.24-3.79,2.32-8.35.36-9.14-4.03-1.62-8.22,3.07-11-2.92,3.67,2.79,8.38-1.33,12.11.16.82.33,1.42.9,1.85,1.61,3.96-5.47-11.34-14.63-18.29-6.29.95-5.01,4.98-6.88,9.94-6.85.09-2.54,1.48-5.03,2.91-7.05,3.28-4.64,9.27-.53,12.06-4.58,0,4.89-7.49,3.26-9.62,6.29-1,1.42-2.69,5.08-1.26,6.87,2.16,2.7,5,4.04,8.57,5.39,2.95,1.11,5.53,2.25,8.16,3.9,2.18,1.37,3.65,2.51,5.88.89.67-.48,1.33-.97,2.1-1.25,1.94-2.91,3.84-3,6.03-2.82-3.86,1.86-2.59,5.79,1.29,5.83,3.39.03,7.5-6.04,9.51-5.37-2.54,1.83,1.69,2.76,3.87,5.63,4.35,4.35,8.18.56,12.41,3.33-6.71-.62-8.32,4.96-14.51-1.23-1.16-1.16-2.32-2.32-3.6-2.53-2.63-.44-8.83,4.07-2.73,5.38-2.24.97-4.16-.26-5.85-2.35-1.21-.28-2.12-1.08-3.03-1.88-1.56-1.38-2.03-1.56-3.73-.33-3.38,2.45-5.9,1.28-9.2-.78-2.15-1.34-3.99-2.51-6.44-.61-3.2,2.49-4.65,6.99-5.13,11.23-.42,3.76,3.7,3.36,9.12,1.62,5.7-1.83,9.93-3.63,5.13-7.39,8.4,3.89,16.91,7.99,25.64,2.71-2.95,3.27,6.93,1.92,9.01,1.61,6.34-.94,10.82-4,15.61-7.97.79,3.55-6.48,4.7,2.38,7.67,4.79,1.61,9.07,1.2,13.76-.53,2.29-.84,4.32-1.94,5.65-3.22-.29,2.91-.82,4.22-4.63,6.01-3.01,1.42,1.79,2.53,4.73,3.24,2.96.71,8.13.03,11.28-2.15,3.26-2.26,4.38-6.07.67-8.24,2.43-.23,4.35.09,4.83,2.79,2.03-2.8,1.52-6.52,1.6-9.78,1.37,4.99,4.78.39,5.5-4.92,1.06-7.76-2.03-7.24-4.71-4.73-1.84,1.72-3.2,4.49-4.06,5.68-1.58,2.18-3.5,4.03-5.68,5.54-3.03,2.09-.41,5.82-4.08,9.09,1.29-3.12.94-7.34-2.52-6.81-3.52.54-9.19.73-10.92-3.09-1.82,3.83-5.9,5.72-9.94,6.81,4.86-2.47,11.6-9.9,6.85-16.71-.86-1.24-2.01-2.28-3.24-2.93-3.27-1.72-7.11-2.3-10.95-2.88-1.88-.28-3.77-.57-5.63-.99-2.47,2.13-9.39,1.11-12.7-3.39,5.34,2.14,9.01,3.05,10.6,1.27,2.61-2.92,3.11-5.71,2.25-6.52-.73-.69-2.48.34-4.57,1.13-2.69,1.02-5.55-.29-8.26-.94-3.7-.9-6.27-1.49-9.74.21-4.15,2.04-7.91,1.64-12.43,1.21,3.04,4.65,1.12,8.46,8.29,6.44,2.06-.58,3.98-1.12,5.97-.18,2.54,1.2,4.84,2.58,7.13,3.95,3.86,2.32,7.41,4.76,12.44,6.07,2.82.73,6.79,1.87,10.09.95-.7,1.66-2.74,2.39-5.06,2.78,1.24,1.38.74,3.61-.62,4.96-.22-1.41-1.22-5.07-5.43-6.07-5.13-1.22-9.01-3.77-12.95-6.14-2.22-1.33-4.44-2.67-6.87-3.82-.99-.47-2.39-.07-3.9.35-10.27,2.88-3.43,2.71-11.04,9.34l-.02-.03c-3.45,2.5-8.76-.67-11.51-2.9-.89-.72-2.98.65-4.38-1.44,2.6.61,5.69-3.08,4.09-5.73,2.89.17,1.39,3.23,2.05,4.78.75,1.77,6.08,4.48,8.13,2.8,6.5-6.09,2.44-15.31-3.9-19.41-3.6-2.33-8.04-3.48-12.19-3.02-8.72.96-6.08,10.48-13.92,11.51,4.08-2.31,4.44-10.58,7.64-12.57-5.49-1.73-11.39-4.39-17.25-3.25-1.93.37-1.15,1.51.33,3.35-8.55-7.02-17.66,5.02-9.07,12.94-7.4-1.2-4.98-10.35-9.1-4.89-4.26,5.64-2.58,14.62.9,20.27h0Zm149.86-22.14c-.06-6.22-.63-14.09-2.46-20.13-.62-2.04-1.46-4.08-2.65-6.12-.56.68-1.34,1.16-2.22,1.3.89,2.69,1.61,5.44,2.19,8.21.7,3.38,1.2,6.82,1.57,10.24,2.46,2.72,2.79,7.57-.18,8.03,1.46-2.17.37-4.26-.85-1.6-1.1,2.4-1.1,3.65-.3,6.17.45,1.42.9,2.83.79,4.29,3.76-1.72,4.18-4.66,4.12-10.4h0Zm-7.07-29.18c-.28-5.32-2.34-9.28-5.77-13.19-5.36-6.09-11.52-6.17-11.39-3.72.43,7.88,7.12,4.83,9.29,10.99-3.13-4.12-11.78-2.75-12.26-10.17-.32-4.92,3.72-5.76,7.59-5.02-1.08-2.3-2.61-4.42-4.5-6.39-3.68-3.83-5.89-5.22-6.38-2.06-1.06,6.95-12.19,10.04-18.34,7.95-9.27-3.14-8.03,9.16-16.06,7.6,8.02-2.61,5.35-14.37,17.02-10.41,6.29,2.13,12.81-.61,13.83-6.39.67-3.78-2.69-6.94-6.52-9.95-5-3.92-9.83-6.51-16.08-6.61-1.74-.03-3.49-.06-4.61.71-.01,0-.02.01-.03.02-3.83,3.1,4.64,3.72,4.93,7.96-2.37-2.6-4.06-1.05-7.33-3.25-5.12,1.01-12.74,1.25-16.55,5.41-1.49,1.63-1.11,2.07.64,2.69,3.17,1.12,6.2,4.57,1.76,7.07h0c-.24.13-.48.23-.72.3-10.95,2.92-19.67-.59-23.58,13.15-.8,2.82.43,5.91.83,9.02.42,3.27-.88,4.83,1.27,7.24,1.98,2.22,5.12,2.23,5.96-1.18,1.21-4.98-.32-7.33,5.49-10.45-3.25,4.26-1.51,6.7-2.6,11.15-1.37,5.62-7.46,6.51-11.04,2.48-1.34,2.91-3.31,4.49.64,6.37,4.14,1.97,7.07-.93,10.57-3.75,2.84-2.29,5.97-4.81,9.7-5.39-4-4.59-3.45-12.71-.23-16.63-1.27,7.12-1.74,15.01,7.69,17.57,2.15.58,4.3,1.17,6.26.89,6.68-.96,9.23-5.75,10.94-11.74,1.06-3.7,2.1-7.37,5.16-9.82,2.8-2.25,7.17-.03,9.09,2.37,4.13,5.14-2.51,8.91-5.01,12.6.02-3.52,5.41-7.35,2.69-10.74-.82-1.02-3.54-3.03-4.92-1.92-2.32,1.86-3.23,5.08-4.16,8.32-2.03,7.11-5.45,12.65-13.26,13.85,1.72,4.38,3.61,5.79,5.88,5.31,3.02-.64,7.68-3.06,12.04-8.36-2.53,6.63-6.25,9.62-11.43,11.27-7.15,2.28-7.18-7.28-14.08-9.16-2.36-.64-4.71-1.28-6.8-.75-2.82.72-5.26,2.68-7.7,4.65-5.91,4.76-12.61,7.25-19.64,9.99-.93.36-1.86.72-2.79,1.09.28.07.56.13.83.19.36-.06.71-.11,1.05-.15,4.82-.53,9.96.8,14.12,3.49,1.17.76,2.26,1.62,3.25,2.59,2.12.11,4.59.89,6.93.67,4.59-.42,2.04-4.24-1.13-4.49-3.45-.27-5.02-1.08-7.73-3.15,7.3,2.27,14.64-.53,18.86-7.04-1.23,3.57-2.6,5.86-4.71,7.54-5.13,4.06,8.16,3.16,13.28,5.35,2.31.99,4.88,1.18,7.19.89,2.07-.27,3.7-2.9,5.22-4.22,1.48-1.28,3.05-2.43,4.63-3.58h0c9.2-6.95,14.74-17.77,13.62-30.38-.89-10.03,3.19-9.34,6.13-12.04-4.84,5.04-3.43,8.94-3.2,12.49.5,7.5-1.4,15.35-4.91,22.27.83,2.8.81,6.48,2.86,8.71,6.75,7.35,11.09,4.21,16.29-2.6,2.18-2.36,4.33-3.56,6.01-2.55-3.75.57-2.7,4.35-1.78,7.71,1.08,3.94.08,7.74-1.58,11.95,1.63,2.79,2.16,6.62-.6,8.03.66-9.04-5.84,1.92-7.12,4.73-.52-6.17,2.26-7.84,4.37-12.45,1.73-3.77,3.91-9.63,1.38-13.44-2.16,2.67-5.13,5.7-8.74,6.12-.28,2.74-1.72,5.65-5.03,6.4,1.31-2.01,2.01-4.3,2.07-6.69-2.83-.82-5.67-2.89-7.45-5.2-3.56-4.65-1.17-8.1-8.76-2-.58.47-1.2.89-1.8,1.33h0c-5.05,3.69-2.33,7.83-4.89,13.22,1.36.26,2.75.47,4.14.68,4.08.62,8.17,1.23,11.89,3.19.85.45,1.67,1.03,2.41,1.71,5.01-1.66,7.09-3.79,10.03-8.83-.09,4.46-4.45,9.37-8.03,11.16,1.38,2.05,2.14,4.48,1.88,6.95,2.6,4.71,2.94,5.4,9.14,4.62,1.96-.25,3.84-.82,5.41-1.83,1.9-1.22,3.51-2.88,4.88-4.77,1.64-2.28,2.93-4.89,3.91-7.49.4-1.07-.04-2.47-.49-3.88-1.03-3.22-.98-5.22.43-8.3.52-1.14,1.03-2.27.94-3.26-.37-3.86-.89-7.75-1.69-11.57-.79-3.78-1.82-7.55-3.28-11.13h0c-.59-1.4-2.09-2.51-3.33-2.02-5.34,2.12-10.01,8.11-11.93,13.56.96,1.65,1.4,2.97.64,4.41-.69-3.04-4.36-3.79-6.89-2.65.4-1.4,1.67-2.67,3.43-2.69.65-1.84,1.29-3.7,2.49-5.28-1.8-3.73-2.59-10.7,2.12-13.73-2.36,3.39-2.3,12.29,1.32,9.5,1.65-1.27,3.39-4.96,7.76-5.88,3.08-.65,6.19,1.32,7.26,3.92.4.96,1.46-.07,1.41-1.05h0Zm-50.5-50.35c-3.71-2.41-7.79-3.61-12.23-3.73l-.05.14c-.49,1.27-.98,2.55-2.57,2.97-1.64.44-3.18.04-4.71-.35-1.22-.31-2.43-.63-3.32-.29-3.29,1.24-3.92,3.92-4.43,6.11-.6,2.58-1.1,4.69-4.04,5.03-2.23.25-9.62.78-10.06,3.02-.48,2.4-1.13,4.38-3.21,5.94-2.14,1.61-4.69,1.88-7.25,2.14-2.04.21-4.08.43-5.57,1.4-1.7,1.11-3.49,2.56-4.74,4.24-.91,1.22-1.52,2.55-1.55,3.92-.11,4.19,1.48,8.3,3.08,12.43,2.68,6.91-1.33,9.54,1.55,16.34-4.17-3.24-2.8-11.34-4.32-15.27-2.28-5.7-5.37,1.45-5.99,5.81-.7,4.87.4,10.2,2.97,15.17-3.61-.89-4.39-6.62-7.29-1.51-.72,1.1-1.3,2.26-1.67,3.48,9.38-1.56,13.74,4.12,23.09.48,3.31-1.62,6.65-1.83,2.97-7.16-1.29-1.87.26-3.37,1.19-4.89,2.41-3.93,2.01-16.15-3.53-17.21-4.63-.89-8-5.47-2.58-8.35-2.46,3.2-.32,4.98,2.85,5.58,4.4.84,3.9.02,5.52-3.43,4.83-10.3,13.35-8.11,24.12-10.98.02,0,.03,0,.03-.01h0c1.51-.85-.6-1.43-1.29-1.68-3.46-2.94-8.99.21-10.2-2.52,4.64-.11,7.12-3.61,8.36-4.97,4.23-4.62,11.8-5.13,17.54-6.2-.35-4.52,3.62-5.64,7.32-5.63h0Zm-15.08-4.61c-8.2-2.99-18.29-6.61-27.16-4.91,1.22,2.55,1.68,3.6,0,6.23,1.32,1,3.4,3,3.42,4.94-5.11-4.61-19.01-9.3-25.99-2.67l-.03.03h0c-1.41,1.36-3.54,4.56-4.87,7.92-1.23,3.08-1.79,6.21-.35,7.72l.02.02h0c1.96,2.04,4.35,3.7,6.73,5.36,2.38,1.66,1.89,1.4,4.26-.15,4.31-3.37-1.09-13.41,7.63-19.39-5.68,6.81-3.98,18.01,1.88,16.24,6.36-1.93,5.53-4.71,3.3-6.02-1.36-.8-2.43-2.41-3.16-3.81,3.04,2.38,9.82,1.25,13.58.64,1.4-.23,2.8-.46,4.14-.61.86-.1,1.13-1.29,1.47-2.75.67-2.88,1.5-6.42,6.28-8.22,1.76-.67,3.44-.23,5.11.2,1.15.3,2.3.59,3.2.35.12-.03.33-.56.54-1.11h0Zm-58.34,89.76h0c-2.83.98-3.02,3.53-3.37,6.3-.27,2.08-.25,4.23-.05,6.3.2,2.05.51,4.18,1.08,6.21,2.71,8.66,12.38,9.16,11.04,13.08-2.54-3.02-6.4-2.26-9.16-4.22-1.53,1.62-3.08,1.74-5,1.46,4.81-4.13,1.28-5.76.26-9.5-1.61-5.94-2.67-12.36-11.48-9.52,1.64-1.97,4.48-2.76,6.89-1.77,3.99,1.64,3.33-.47,3.48-2.4.79-6.18-1.6-8.32-.39-10.47,1.09,2.64,2.6,2.81,5.73,1.73h0c3.43-1.18,5.67-3.39,8.09-7.45-.67,5.3-3.11,8.87-7.12,10.26h0Zm41.9-57.49c3.54,2.76,10.84-4.03,14.92,2.26.58-.6,1.14-1.2,1.7-1.79,3.92-4.18,11.92-13.02,17.9-13.68,5.39-.6,8.9,5.74,13.33,4.23-4.57,3.98-8.48-1.78-13-1.27-4.96.55-12.89,9.39-16.06,12.76-3.25,3.46-1.7,4-2.71,8.41-1.38,6.01,6.85,6.04,3.5,10.24-.43-4.74-7.94-4.2-6.4-10.9.55-2.4.51-4.46-.89-6.61-3.43-5.27-9.18,1.46-12.28-3.65h0Zm8.62,110.9c-2.69-1.55-3.45-1.43-1.72.58,3.69,4.28,7.47,8.88,9.13,15.18-4.21-9.53-20.29-24.78-21.48-25.63-2.22-1.59-1.66,1.86-.18,3.33,1.64,1.62,3.22,3.14,4.73,4.59,6.58,6.32,11.74,11.28,15.27,18.56.58,1.19,3.49,1.99,4.59,1.01.04-.04.06-.09.05-.16h0c-1.07-7.78-3.94-13.74-10.4-17.46h0Z"/>
  </g>
</svg>